<svg xmlns="http://www.w3.org/2000/svg" width="7.691" height="11.538" viewBox="0 0 7.691 11.538">
  <g id="arrow-ic" transform="translate(-386.309 -146.716)">
    <path id="arrow" d="M-567.973,4327.618l4.211-3.969.019-.018a1,1,0,0,0-.019-1.475,1.175,1.175,0,0,0-1.583,0l-4.224,3.982-1.435,1.353a.97.97,0,0,0-.116.13,1.031,1.031,0,0,0,.11.121l1.442,1.357,4.222,3.974.019.018a1.154,1.154,0,0,0,1.564-.018,1.018,1.018,0,0,0,0-1.492Z" transform="translate(-177.12 4480.104) rotate(180)" fill="#17151f"/>
  </g>
</svg>
