<svg id="call-inactive-ic" xmlns="http://www.w3.org/2000/svg" width="40" height="40" viewBox="0 0 40 40">
  <circle id="Ellipse_48" data-name="Ellipse 48" cx="20" cy="20" r="20" fill="#ededed"/>
  <path id="Union_2" data-name="Union 2" d="M12.075,19.214a17.715,17.715,0,0,1-3.469-2c-.394-.293-.787-.585-1.16-.9l3.3-3.3a5.74,5.74,0,0,0,.745.485c.051.02.111.049.183.081a.712.712,0,0,0,.25.04.55.55,0,0,0,.414-.172L13.1,12.7a3.079,3.079,0,0,1,.726-.565,1.344,1.344,0,0,1,.715-.212,1.591,1.591,0,0,1,.615.132,3.813,3.813,0,0,1,.706.393l3.339,2.369a1.539,1.539,0,0,1,.554.646,2.071,2.071,0,0,1,.161.787,2.563,2.563,0,0,1-.152.856,2.3,2.3,0,0,1-.1.241,4.141,4.141,0,0,1-.687,1.028,4.528,4.528,0,0,1-1.654,1.191c-.009,0-.02.009-.029.009a5.064,5.064,0,0,1-1.936.373A8.408,8.408,0,0,1,12.075,19.214Zm-6.559-4.6a28.773,28.773,0,0,1-2.814-3.3A18.062,18.062,0,0,1,.727,7.874,8.476,8.476,0,0,1,0,4.578,5.2,5.2,0,0,1,.364,2.631,4.637,4.637,0,0,1,1.522.948,2.958,2.958,0,0,1,3.621,0a1.9,1.9,0,0,1,.816.181,1.634,1.634,0,0,1,.675.565l2.34,3.3a3.445,3.445,0,0,1,.4.706A1.581,1.581,0,0,1,8,5.364a1.368,1.368,0,0,1-.21.715A3.492,3.492,0,0,1,7.22,6.8l-.767.8a.543.543,0,0,0-.161.4.9.9,0,0,0,.031.232c.029.08.06.141.08.2A8.41,8.41,0,0,0,7.34,9.72c.454.525.938,1.059,1.462,1.594.364.351.717.7,1.07,1l-3.3,3.3Q6.03,15.124,5.516,14.611Z" transform="translate(10.04 10.049)" fill="#fff"/>
</svg>
