<svg xmlns="http://www.w3.org/2000/svg" width="19.995" height="20.016" viewBox="0 0 19.995 20.016">
  <g id="close-ic" transform="translate(20.002 19.962) rotate(180)">
    <path id="Path_3" data-name="Path 3" d="M1.594.056,23.141-.011a1.587,1.587,0,0,1,1.585,1.585,1.611,1.611,0,0,1-1.6,1.6L1.585,3.236a1.59,1.59,0,0,1,.01-3.18Z" transform="translate(2.51 0.189) rotate(45)" fill="#fff"/>
    <path id="Path_27" data-name="Path 27" d="M1.586,0,23.349.067a1.611,1.611,0,0,1,1.6,1.6,1.587,1.587,0,0,1-1.585,1.585L1.6,3.181A1.611,1.611,0,0,1,0,1.586,1.56,1.56,0,0,1,1.586,0Z" transform="translate(0.006 17.583) rotate(-45)" fill="#fff"/>
  </g>
</svg>
