<svg xmlns="http://www.w3.org/2000/svg" width="24" height="24" viewBox="0 0 24 24">
  <path id="my-requests-ic" d="M-464.671-3221.943a11.964,11.964,0,0,1-3.814-2.571,11.963,11.963,0,0,1-2.571-3.814A11.93,11.93,0,0,1-472-3233a1.091,1.091,0,0,1,1.091-1.091,1.091,1.091,0,0,1,1.091,1.091,9.753,9.753,0,0,0,2.876,6.943,9.753,9.753,0,0,0,6.943,2.876,9.753,9.753,0,0,0,6.943-2.876,9.753,9.753,0,0,0,2.876-6.943,9.753,9.753,0,0,0-2.876-6.942,9.752,9.752,0,0,0-6.943-2.876,9.811,9.811,0,0,0-4.977,1.353,9.875,9.875,0,0,0-2.341,1.92h1.368a1.091,1.091,0,0,1,1.091,1.091,1.091,1.091,0,0,1-1.091,1.091h-3.967a1.091,1.091,0,0,1-1.091-1.091v-3.967a1.091,1.091,0,0,1,1.091-1.091,1.091,1.091,0,0,1,1.091,1.091v1.292a12.053,12.053,0,0,1,2.741-2.216A11.99,11.99,0,0,1-460-3245a11.928,11.928,0,0,1,4.672.943,11.961,11.961,0,0,1,3.814,2.572,11.965,11.965,0,0,1,2.571,3.814A11.931,11.931,0,0,1-448-3233a11.929,11.929,0,0,1-.943,4.671,11.964,11.964,0,0,1-2.571,3.814,11.964,11.964,0,0,1-3.814,2.571A11.919,11.919,0,0,1-460-3221,11.92,11.92,0,0,1-464.671-3221.943Zm8.527-5.655-4.625-4.625a1.09,1.09,0,0,1-.32-.772v-6.55a1.091,1.091,0,0,1,1.091-1.091,1.091,1.091,0,0,1,1.091,1.091v6.1l4.305,4.306a1.091,1.091,0,0,1,0,1.543,1.086,1.086,0,0,1-.771.32A1.088,1.088,0,0,1-456.144-3227.6Z" transform="translate(472 3245)"/>
</svg>
