<svg xmlns="http://www.w3.org/2000/svg" width="27.52" height="27.52" viewBox="0 0 27.52 27.52">
  <g id="diagnosis-ic" transform="translate(-2 -2)">
    <path id="Path_1783" data-name="Path 1783" d="M15.76,2a13.76,13.76,0,1,0,4.39,26.8A6.422,6.422,0,1,1,28.8,20.15,13.77,13.77,0,0,0,15.76,2ZM7.306,12.192a9.177,9.177,0,0,1,16.907,0,.917.917,0,0,1-.845,1.274H8.151a.917.917,0,0,1-.845-1.274Zm-.389,4.351a.917.917,0,0,1,.7-.325H8.88a5.5,5.5,0,0,1,5.5,5.5v1.9a.917.917,0,0,1-1.2.874,9.457,9.457,0,0,1-6.473-7.209A.917.917,0,0,1,6.918,16.543Z" fill="#f80b39" fill-rule="evenodd"/>
    <path id="Path_1784" data-name="Path 1784" d="M46.9,44.515a.9.9,0,0,1-.9-.9V40.9a.9.9,0,0,1,1.806,0v2.709A.9.9,0,0,1,46.9,44.515Z" transform="translate(-23.796 -20.516)" fill="#f80b39"/>
    <path id="Path_1785" data-name="Path 1785" d="M47.806,51.9a.9.9,0,1,1-.9-.9A.9.9,0,0,1,47.806,51.9Z" transform="translate(-23.796 -26.446)" fill="#f80b39"/>
  </g>
</svg>
