<svg xmlns="http://www.w3.org/2000/svg" width="27.52" height="27.094" viewBox="0 0 27.52 27.094">
  <g id="distance-ic" transform="translate(-18.005 -18)">
    <path id="Path_1779" data-name="Path 1779" d="M43.886,43.555H38.751a1.726,1.726,0,0,0,0,3.452h5.135a4.2,4.2,0,0,0,4-3.015,4.3,4.3,0,0,0-1.655-4.778L32.747,29.932a.819.819,0,0,1-.311-.906.8.8,0,0,1,.756-.574h3.44a1.726,1.726,0,0,0,0-3.452h-3.44a4.2,4.2,0,0,0-4,3.015,4.3,4.3,0,0,0,1.655,4.778l13.486,9.278a.819.819,0,0,1,.317.912.8.8,0,0,1-.766.572Z" transform="translate(-5.937 -4.034)"/>
    <path id="Path_1780" data-name="Path 1780" d="M21.422,63.529a2.2,2.2,0,0,0,3.33,0c1.568-1.813,3.419-4.055,3.419-6.444A5.084,5.084,0,0,0,23.256,52a5.182,5.182,0,0,0-4.517,2.589C16.706,57.889,19.316,61.092,21.422,63.529Zm1.665-8.139a1.695,1.695,0,1,1-1.695,1.695A1.695,1.695,0,0,1,23.087,55.389Z" transform="translate(0 -19.195)"/>
    <path id="Path_1781" data-name="Path 1781" d="M63.256,18a5.182,5.182,0,0,0-4.517,2.589c-2.034,3.3.576,6.5,2.682,8.936a2.2,2.2,0,0,0,3.33,0c1.568-1.809,3.419-4.051,3.419-6.44A5.084,5.084,0,0,0,63.256,18Zm-.169,6.779a1.695,1.695,0,1,1,1.695-1.695A1.695,1.695,0,0,1,63.087,24.779Z" transform="translate(-22.647)"/>
  </g>
</svg>
