<svg xmlns="http://www.w3.org/2000/svg" width="27.52" height="27.52" viewBox="0 0 27.52 27.52">
  <g id="engine-temp-ic" transform="translate(-11 -12)">
    <g id="Group_2846" data-name="Group 2846" transform="translate(11 12)">
      <path id="Path_1782" data-name="Path 1782" d="M38.52,34.933v2.293c-.491,0-.74.124-1.28.639l-.183.178a3.941,3.941,0,0,1-3.124,1.476,3.7,3.7,0,0,1-2.91-1.292l-.194-.191c-.664-.664-.909-.811-1.483-.811-.53,0-.779.125-1.336.667l-.146.144a3.868,3.868,0,0,1-3.1,1.483,3.7,3.7,0,0,1-2.91-1.292l-.194-.191c-.664-.664-.909-.811-1.483-.811-.53,0-.779.125-1.336.667l-.146.144a3.868,3.868,0,0,1-3.1,1.483,3.7,3.7,0,0,1-2.91-1.292l-.194-.191c-.613-.613-.869-.785-1.356-.808l-.127,0V34.933a3.7,3.7,0,0,1,2.91,1.292l.194.191c.664.664.909.811,1.483.811.53,0,.779-.125,1.336-.667l.146-.144a3.868,3.868,0,0,1,3.1-1.483,3.7,3.7,0,0,1,2.91,1.292l.194.191c.664.664.909.811,1.483.811.53,0,.779-.125,1.336-.667l.146-.144a3.868,3.868,0,0,1,3.1-1.483,3.7,3.7,0,0,1,2.91,1.292l.194.191c.664.664.909.811,1.483.811a1.544,1.544,0,0,0,1.21-.527l.333-.318a3.894,3.894,0,0,1,2.793-1.443ZM24.76,12A1.147,1.147,0,0,1,25.9,13.013l.008.134V15.44h3.44a1.147,1.147,0,1,1,0,2.293h-3.44V18.88h3.44a1.147,1.147,0,1,1,0,2.293h-3.44V22.32h3.44a1.147,1.147,0,1,1,0,2.293h-3.44v3.679a2.867,2.867,0,1,1-2.294,0V13.147A1.147,1.147,0,0,1,24.76,12ZM38.52,29.2v2.293c-.491,0-.74.124-1.28.639l-.183.178a3.941,3.941,0,0,1-3.124,1.476,3.7,3.7,0,0,1-2.91-1.292l-.194-.191c-.664-.664-.909-.811-1.483-.811l-.036,0a4.632,4.632,0,0,0,.036-.575,4.574,4.574,0,0,0-.329-1.71c.1-.007.214-.01.329-.01a3.7,3.7,0,0,1,2.91,1.292l.194.191c.664.664.909.811,1.483.811a1.544,1.544,0,0,0,1.21-.527l.333-.318a3.894,3.894,0,0,1,2.793-1.443Zm-18.347,0c.115,0,.226,0,.332.01a4.523,4.523,0,0,0-.332,1.71,4.632,4.632,0,0,0,.036.575.205.205,0,0,0-.036,0c-.53,0-.779.125-1.336.667l-.146.144a3.868,3.868,0,0,1-3.1,1.483,3.7,3.7,0,0,1-2.91-1.292l-.194-.191c-.613-.613-.869-.785-1.356-.808l-.127,0V29.2a3.7,3.7,0,0,1,2.91,1.292l.194.191c.664.664.909.811,1.483.811.53,0,.779-.125,1.336-.667l.146-.144A3.868,3.868,0,0,1,20.173,29.2Z" transform="translate(-11 -12)" fill-rule="evenodd"/>
    </g>
  </g>
</svg>
