<svg id="filter-ic" xmlns="http://www.w3.org/2000/svg" width="22.255" height="22.255" viewBox="0 0 22.255 22.255">
  <path id="Path_911" data-name="Path 911" d="M17.346,3H10.391A1.314,1.314,0,0,0,9,4.391a1.314,1.314,0,0,0,1.391,1.391h6.955a1.314,1.314,0,0,0,1.391-1.391A1.314,1.314,0,0,0,17.346,3Z" transform="translate(3.519 1.173)" fill="#17151f"/>
  <path id="Path_912" data-name="Path 912" d="M1.391,6.955H2.782V9.737a1.314,1.314,0,0,0,1.391,1.391H8.346A1.314,1.314,0,0,0,9.737,9.737V1.391A1.314,1.314,0,0,0,8.346,0H4.173A1.314,1.314,0,0,0,2.782,1.391V4.173H1.391A1.314,1.314,0,0,0,0,5.564,1.314,1.314,0,0,0,1.391,6.955Z" fill="#17151f"/>
  <path id="Path_913" data-name="Path 913" d="M1.391,13.782H8.346a1.314,1.314,0,0,0,1.391-1.391A1.314,1.314,0,0,0,8.346,11H1.391A1.314,1.314,0,0,0,0,12.391,1.314,1.314,0,0,0,1.391,13.782Z" transform="translate(0 4.301)" fill="#4ad594"/>
  <path id="Path_914" data-name="Path 914" d="M17.346,12.173H15.955V9.391A1.314,1.314,0,0,0,14.564,8H10.391A1.314,1.314,0,0,0,9,9.391v8.346a1.314,1.314,0,0,0,1.391,1.391h4.173a1.314,1.314,0,0,0,1.391-1.391V14.955h1.391a1.314,1.314,0,0,0,1.391-1.391A1.314,1.314,0,0,0,17.346,12.173Z" transform="translate(3.519 3.128)" fill="#17151f"/>
</svg>
