<svg xmlns="http://www.w3.org/2000/svg" width="26" height="26.398" viewBox="0 0 26 26.398">
  <g id="gorex-on-demdand-ic" transform="translate(-195 -587)">
    <path id="Path_1004" data-name="Path 1004" d="M18.458,19.716a9.959,9.959,0,0,1-1.985,1.179,7.123,7.123,0,0,1-3.106.581,7.608,7.608,0,0,1-3.072-.727,9.305,9.305,0,0,1-2.776-2.006,9.144,9.144,0,0,1-1.9-2.771,7.458,7.458,0,0,1-.664-3.023,7.348,7.348,0,0,1,.63-3.013A8.678,8.678,0,0,1,7.529,7.189a7.955,7.955,0,0,1,3.556-2.108,9.553,9.553,0,0,1,3.023-.262A1.047,1.047,0,0,0,15.242,3.9l.3-2.664A1.047,1.047,0,0,0,14.617.081,12.813,12.813,0,0,0,9.607.5,12.792,12.792,0,0,0,4.259,3.724,14.106,14.106,0,0,0,1.143,8.148,13.073,13.073,0,0,0,.005,13.085,12.765,12.765,0,0,0,3.726,22.44,12.755,12.755,0,0,0,12.979,26.4a13.381,13.381,0,0,0,6.365-1.678A.706.706,0,0,0,19.7,24.1V19.093a.214.214,0,0,0-.356-.16Z" transform="translate(195 587)" fill="#4ad594"/>
    <path id="Path_1005" data-name="Path 1005" d="M48.722,32.541v3.987a12.962,12.962,0,0,1-3.94,6.016.5.5,0,0,1-.823-.385V35.952H37.21a1.045,1.045,0,0,1-1.046-1.046V32.541A1.045,1.045,0,0,1,37.21,31.5H47.676a1.046,1.046,0,0,1,1.046,1.046" transform="translate(172.278 567.212)" fill="#4ad594"/>
  </g>
</svg>
