<svg xmlns="http://www.w3.org/2000/svg" width="23.895" height="23.895" viewBox="0 0 23.895 23.895">
  <g id="navigate-ic" transform="translate(-1 -1)">
    <path id="Path_752" data-name="Path 752" d="M12.948,8.6a4.345,4.345,0,1,0,4.345,4.345A4.343,4.343,0,0,0,12.948,8.6Zm9.71,3.258a9.769,9.769,0,0,0-8.624-8.624V1H11.862V3.237a9.769,9.769,0,0,0-8.624,8.624H1v2.172H3.237a9.769,9.769,0,0,0,8.624,8.624V24.9h2.172V22.658a9.769,9.769,0,0,0,8.624-8.624H24.9V11.862H22.658Zm-9.71,8.689a7.6,7.6,0,1,1,7.6-7.6A7.6,7.6,0,0,1,12.948,20.551Z" transform="translate(0 0)" fill="#fff"/>
  </g>
</svg>
