<svg xmlns="http://www.w3.org/2000/svg" width="19.636" height="27.136" viewBox="0 0 19.636 27.136">
  <path id="out-of-range-ic" d="M281.949,386.258a9.82,9.82,0,0,0-9.818,9.818c0,5.872,4.48,12.321,8.558,16.766.032.035.066.069.1.1a1.706,1.706,0,0,0,2.41-.1c4.087-4.445,8.567-10.895,8.567-16.766A9.82,9.82,0,0,0,281.949,386.258Zm2.608,11.631a.563.563,0,1,1-.8.8l-1.812-1.812-1.812,1.812a.563.563,0,0,1-.8-.8l1.812-1.812-1.812-1.812a.562.562,0,0,1,0-.8h0a.562.562,0,0,1,.8,0l1.813,1.812,1.812-1.812a.562.562,0,0,1,.8,0h0a.562.562,0,0,1,0,.8l-1.812,1.812Z" transform="translate(-272.131 -386.258)" fill="#ffae00" fill-rule="evenodd"/>
</svg>
