<svg xmlns="http://www.w3.org/2000/svg" width="24" height="24" viewBox="0 0 24 24">
  <path id="read-qr" d="M106,28H98v8h8Zm-2.667,5.333h-2.667V30.667h2.667ZM98,52h8V44H98Zm2.667-5.333h2.667v2.667h-2.667ZM114,28v8h8V28Zm5.333,5.333h-2.667V30.667h2.667ZM108.667,28h2.667v5.333h-2.667Zm0,8h2.667v2.667h-2.667ZM98,38.667h2.667v2.667H98Zm5.333,0h5.333v2.667h-5.333ZM114,44h2.667v2.667H114Zm-5.333,2.667v2.667h2.667V44h-2.667Zm2.667,2.667H114V52h-2.667Zm0-10.667H114V44h-2.667Zm8,0h-2.667v2.667h2.667V44H122V38.667Zm0,10.667h-2.667V52H122V46.667h-2.667Z" transform="translate(-98 -28)" fill="#fff"/>
</svg>
