<svg xmlns="http://www.w3.org/2000/svg" width="27.52" height="31.602" viewBox="0 0 27.52 31.602">
  <g id="reminders-ic" transform="translate(-8.585 -2.5)">
    <path id="Path_1793" data-name="Path 1793" d="M35.451,22.882l-1-.693a7.912,7.912,0,0,1-3.394-5.739l-.333-3.76A7.717,7.717,0,0,0,24.771,5.9V4.281a1.8,1.8,0,0,0-3.593,0V5.9a7.717,7.717,0,0,0-5.955,6.794l-.333,3.76A7.808,7.808,0,0,1,11.5,22.19l-1,.693a2.31,2.31,0,0,0-1,1.913V26.18a.976.976,0,0,0,1,.989H35.451a.976.976,0,0,0,1-.989V24.8A2.31,2.31,0,0,0,35.451,22.882Z" transform="translate(-0.613)"/>
    <path id="Path_1794" data-name="Path 1794" d="M9.942,15.22h.132a1.5,1.5,0,0,0,1.484-1.352,10.794,10.794,0,0,1,3.133-6.662A1.493,1.493,0,0,0,12.581,5.1,13.727,13.727,0,0,0,8.59,13.6,1.5,1.5,0,0,0,9.942,15.22Z" transform="translate(0 -1.441)"/>
    <path id="Path_1795" data-name="Path 1795" d="M75.061,13.9a1.475,1.475,0,0,0,1.484,1.352h.132a1.485,1.485,0,0,0,1.352-1.616,13.727,13.727,0,0,0-3.991-8.509,1.493,1.493,0,1,0-2.078,2.144A10.509,10.509,0,0,1,75.061,13.9Z" transform="translate(-41.93 -1.474)"/>
    <path id="Path_1796" data-name="Path 1796" d="M41.288,88.788A4.279,4.279,0,0,0,45.575,84.5H37A4.279,4.279,0,0,0,41.288,88.788Z" transform="translate(-18.926 -54.686)"/>
  </g>
</svg>
