<svg xmlns="http://www.w3.org/2000/svg" width="14" height="14" viewBox="0 0 14 14">
  <path id="service-ic" d="M174.369,105.585a2.673,2.673,0,0,1-.8-2,.367.367,0,0,1,.622-.241l.733.724a.853.853,0,0,0,1.2,0l.511-.5a.826.826,0,0,0,0-1.184l-.822-.811a.358.358,0,0,1,.222-.614,2.781,2.781,0,0,1,2.244.767,2.655,2.655,0,0,1,.778,2.214,1.562,1.562,0,0,0,.444,1.272l.622.614-1.689,1.666c-.022-.022-.067-.044-.089-.066l-.622-.614a1.619,1.619,0,0,0-1.222-.438,2.794,2.794,0,0,1-2.133-.789Zm10.265,3.946a1.685,1.685,0,0,1-1.222-.438l-.711-.7-1.689,1.666.622.614a1.587,1.587,0,0,1,.444,1.272,2.7,2.7,0,0,0,.778,2.214,2.734,2.734,0,0,0,2.244.767.364.364,0,0,0,.222-.614l-.822-.811a.826.826,0,0,1,0-1.184l.511-.5a.853.853,0,0,1,1.2,0l.733.724a.367.367,0,0,0,.622-.241,2.673,2.673,0,0,0-.8-2,2.858,2.858,0,0,0-2.133-.768Zm-4.488,1.359-.867-.855,4.688-4.6h1.711l1.711-3.4-.867-.855L183.1,102.91V104.6l-4.688,4.6-.844-.833-3.377,3.355a1.757,1.757,0,0,0,0,2.521,1.814,1.814,0,0,0,2.555,0Z" transform="translate(-173.568 -100.942)" fill="#b8b9c1"/>
</svg>
