<svg id="time-ic" xmlns="http://www.w3.org/2000/svg" width="14" height="14" viewBox="0 0 14 14">
  <path id="Path_1113" data-name="Path 1113" d="M177.806,114.812a7,7,0,1,0-3.5-.938,7,7,0,0,0,3.5.938Zm0-12.25h0a5.25,5.25,0,1,1-3.712,1.538,5.25,5.25,0,0,1,3.712-1.538Z" transform="translate(-170.806 -100.812)" fill="#b8b9c1"/>
  <path id="Path_1114" data-name="Path 1114" d="M318.306,201h1.906a.953.953,0,0,0,0-1.906h-1.906v-2.144a.953.953,0,0,0-1.906,0V199.1A1.907,1.907,0,0,0,318.306,201Z" transform="translate(-310.943 -192.444)" fill="#b8b9c1"/>
</svg>
