<svg xmlns="http://www.w3.org/2000/svg" width="83.83" height="169.471" viewBox="0 0 83.83 169.471">
  <g id="wallet-ic" transform="translate(0 15)">
    <g id="Group_2778" data-name="Group 2778">
      <path id="Path_1270" data-name="Path 1270" d="M99.8,50.123a5.582,5.582,0,0,0-9.532-3.941L85.86,50.6V5.659a5.58,5.58,0,1,0-11.159,0V50.607l-4.411-4.425a5.582,5.582,0,0,0-4-1.693h0a5.581,5.581,0,0,0-3.907,9.584L75.718,67.435a5.546,5.546,0,0,0,9.123,0L98.169,54.071A5.584,5.584,0,0,0,99.8,50.123" transform="translate(122.135 54.813) rotate(180)" fill="#ffae00"/>
      <path id="Path_1271" data-name="Path 1271" d="M61.083,57.856H52.345v11.16h8.739A11.446,11.446,0,0,1,72.67,80.61v87.682a11.44,11.44,0,0,1-11.587,11.587H22.758a11.444,11.444,0,0,1-11.594-11.587V80.61A11.45,11.45,0,0,1,22.758,69.016h8.735V57.856H22.758A22.835,22.835,0,0,0,0,80.61v87.682a22.823,22.823,0,0,0,22.758,22.747H61.083A22.816,22.816,0,0,0,83.83,168.292V80.61A22.825,22.825,0,0,0,61.083,57.856" transform="translate(0 -36.568)"/>
      <path id="Path_1272" data-name="Path 1272" d="M86.461,341.595a5.586,5.586,0,0,0,4.027,1.59h10.035a5.582,5.582,0,1,0,0-11.161H90.488a5.582,5.582,0,0,0-4.027,9.571" transform="translate(-53.586 -209.855)"/>
    </g>
  </g>
</svg>
